<svg width="85" height="15" viewBox="0 0 85 15" fill="none" xmlns="http://www.w3.org/2000/svg">
<path d="M12.1999 0V3.20423H7.94091V14.2499H4.23913V3.20423H0V0H12.1999Z" fill="#EFAC00"/>
<path d="M23.6921 14.2499H20.2491C20.1429 13.9182 20.0832 13.5931 20.07 13.2747C19.4331 14.1105 18.3053 14.5285 16.6866 14.5285C15.4792 14.5285 14.5505 14.2101 13.9003 13.5732C13.3298 13.0159 13.0445 12.2796 13.0445 11.3641C13.0445 10.1036 13.6018 9.21464 14.7163 8.69719C15.194 8.4849 16.1758 8.23944 17.6618 7.96081L20.0103 7.52297V6.90601C19.9837 6.14973 19.4596 5.77159 18.438 5.77159C17.8807 5.77159 17.4694 5.8711 17.2041 6.07012C16.952 6.25587 16.7861 6.59421 16.7065 7.08512H13.5023C13.6217 4.78976 15.2802 3.64207 18.4778 3.64207C20.1761 3.64207 21.4498 3.94724 22.299 4.55757C22.697 4.86273 22.969 5.2077 23.115 5.59247C23.2609 5.96398 23.3339 6.5345 23.3339 7.30405C23.3339 7.43673 23.3273 7.84804 23.314 8.53797V8.7569L23.2941 10.4685C23.2941 10.9329 23.2941 11.2447 23.2941 11.4039C23.2941 11.5631 23.2875 11.8152 23.2742 12.1601C23.2742 12.3459 23.2742 12.4918 23.2742 12.598C23.2742 13.341 23.4135 13.8916 23.6921 14.2499ZM20.0501 9.53308L18.4977 9.87141C17.6884 10.0572 17.151 10.2429 16.8856 10.4287C16.6203 10.6144 16.4876 10.893 16.4876 11.2646C16.4876 12.0739 16.9453 12.4786 17.8608 12.4786C18.6304 12.4786 19.2274 12.2066 19.652 11.6626C19.8908 11.3707 20.0169 10.9063 20.0302 10.2695L20.0501 9.53308Z" fill="#EFAC00"/>
<path d="M34.2783 6.8264H31.1537C31.1006 6.42836 30.9414 6.14973 30.676 5.99051C30.4239 5.81803 30.006 5.73179 29.4222 5.73179C28.52 5.73179 28.0689 6.01041 28.0689 6.56767C28.0689 6.85957 28.2082 7.07186 28.4868 7.20454C28.7787 7.33722 29.4421 7.50307 30.477 7.70209C31.9763 7.99398 33.0245 8.38539 33.6215 8.87631C34.2319 9.35396 34.537 10.0505 34.537 10.966C34.537 12.1601 34.0395 13.0756 33.0444 13.7125C32.1687 14.2565 31.0077 14.5285 29.5615 14.5285C27.7305 14.5285 26.3772 14.0973 25.5015 13.2349C25.0769 12.8103 24.7983 12.4786 24.6656 12.2398C24.5462 11.9877 24.4666 11.583 24.4268 11.0257H27.7504C27.8035 11.5034 27.9627 11.8417 28.2281 12.0407C28.5067 12.2265 28.9645 12.3194 29.6013 12.3194C30.6628 12.3194 31.1935 11.9678 31.1935 11.2646C31.1935 10.9594 31.0674 10.7405 30.8153 10.6078C30.5633 10.4618 29.9662 10.2827 29.0242 10.0704C27.5514 9.752 26.5497 9.44683 26.019 9.15494C25.1698 8.67729 24.7452 7.90774 24.7452 6.8463C24.7452 5.81139 25.1565 5.02195 25.9792 4.47796C26.8018 3.9207 27.9694 3.64207 29.4819 3.64207C31.3527 3.64207 32.6861 4.08655 33.4822 4.97551C33.9599 5.49296 34.2252 6.10992 34.2783 6.8264Z" fill="#EFAC00"/>
<path d="M46.7155 3.9207L42.9142 7.7817L47.233 14.2499H43.173L40.6056 10.0704L39.6503 10.9461V14.2499H36.267V0H39.6503V7.44336C39.9157 7.04532 40.1611 6.72689 40.3867 6.48806L42.7948 3.9207H46.7155Z" fill="#EFAC00"/>
<path d="M48.9995 0H55.8458C57.239 0 58.2938 0.179118 59.0102 0.537355C60.2309 1.14768 60.8412 2.16269 60.8412 3.58237C60.8412 4.86937 60.2176 5.8313 58.9704 6.46816C59.5277 6.66718 59.939 6.87284 60.2044 7.08512C61.08 7.74853 61.5179 8.71709 61.5179 9.99082C61.5179 11.5697 60.881 12.7439 59.6073 13.5135C58.7979 14.0044 57.6901 14.2499 56.2837 14.2499H48.9995V0ZM52.7212 2.84599V5.61237H55.3682C56.6021 5.61237 57.2191 5.15463 57.2191 4.23913C57.2191 3.31037 56.5689 2.84599 55.2687 2.84599H52.7212ZM52.7212 8.04042V11.3243H55.6468C57.0532 11.3243 57.7564 10.7803 57.7564 9.69229C57.7564 8.59105 57.0267 8.04042 55.5672 8.04042H52.7212Z" fill="#00C7C7"/>
<path d="M68.274 14.5285C66.5359 14.5285 65.156 13.958 64.1344 12.8169C63.2454 11.8218 62.801 10.5746 62.801 9.07533C62.801 7.35049 63.3715 5.97724 64.5125 4.95561C65.5076 4.07992 66.7548 3.64207 68.2541 3.64207C70.0055 3.64207 71.392 4.20596 72.4136 5.33375C73.2893 6.30231 73.7272 7.54287 73.7272 9.05543C73.7272 10.7935 73.1566 12.1734 72.0156 13.1951C71.0205 14.084 69.7733 14.5285 68.274 14.5285ZM68.2342 6.10993C67.5973 6.10993 67.1064 6.36865 66.7615 6.8861C66.4165 7.40356 66.244 8.1333 66.244 9.07533C66.244 11.0655 66.9207 12.0606 68.274 12.0606C69.6273 12.0606 70.304 11.0589 70.304 9.05543C70.304 7.09176 69.6141 6.10993 68.2342 6.10993Z" fill="#00C7C7"/>
<path d="M84.5822 3.9207L81.3182 8.7768L85.0001 14.2499H81.2784L80.1639 12.5184C80.0312 12.2928 79.8123 11.8284 79.5072 11.1252C79.2418 11.6958 78.9897 12.1668 78.7509 12.5383L77.6961 14.2499H73.9744L77.5966 8.7768L74.3127 3.9207H78.0543L78.8504 5.21433C78.9698 5.38682 79.1887 5.80476 79.5072 6.46816C79.8654 5.79149 80.1109 5.34038 80.2435 5.11482L80.96 3.9207H84.5822Z" fill="#00C7C7"/>
</svg>
